<svg xmlns="http://www.w3.org/2000/svg" width="176" height="77" fill="#000" xmlns:v="https://vecta.io/nano"><path d="M42.038 44.144l6.565-11.026 6.574 11.026-6.574-2.695-6.565 2.695zm39.996 6.922l-1.954-2.649a10.87 10.87 0 0 1-3.84 2.367 12.16 12.16 0 0 1-4.626.713c-5.28 0-9.61-2.649-9.61-7.5v-.092c0-5.344 4.646-7.815 11.282-7.815a22.5 22.5 0 0 1 6.838 1.009v-.416c0-2.88-2.033-4.481-6.002-4.481a23.21 23.21 0 0 0-7.735 1.324l-1.954-5.267c3.402-1.368 7.116-2.039 10.859-1.963 8.668 0 12.487 3.935 12.487 10.557v14.214h-5.746zm-1.76-9.871c-1.596-.616-3.324-.928-5.069-.916-3.397 0-5.482 1.186-5.482 3.38v.092c0 1.879 1.76 2.972 4.338 2.972 3.705 0 6.213-1.786 6.213-4.297v-1.232zm30.36 10.334c-1.68.029-3.343-.287-4.857-.923s-2.838-1.572-3.864-2.735l-2.693 3.203h-5.28V17.71h7.92v12.382c.957-1.248 2.257-2.267 3.781-2.962a11.49 11.49 0 0 1 4.94-1.018c6.529 0 12.742 4.481 12.742 12.659v.092c.062 8.185-6.054 12.667-12.689 12.667zm4.804-12.751c0-4.066-3.132-6.768-6.837-6.768s-6.794 2.703-6.794 6.768v.092c0 4.066 3.08 6.768 6.794 6.768s6.837-2.649 6.837-6.768v-.092zm13.517 12.289V17.71h7.92v33.356h-7.92zm33.528-6.977c-1.661 1.295-3.821 1.991-6.045 1.948-3.52 0-6.064-1.64-6.847-4.797h19.483l.106-1.74v-.092c0-6.93-4.277-13.298-13.631-13.298-8.149 0-13.843 5.76-13.843 12.751v.092c-.026 7.492 6.222 12.636 14.626 12.636 3.65.103 7.204-1.027 9.926-3.157l-3.775-4.343zm-6.934-12.397c3.344 0 5.429 2.102 5.905 5.205h-11.968c.633-3.149 2.754-5.205 6.063-5.205zM34.32 49.488c-1.76-1.348-4.55-2.064-8.281-2.133l-7.762-.108c-.642 0-2.358-.046-2.763-.516-.059-.122-.09-.253-.09-.385s.031-.263.09-.385a4.24 4.24 0 0 1 .968-1.14 20.77 20.77 0 0 0 4.4.431c1.763.012 3.517-.214 5.201-.67 1.534-.414 2.962-1.084 4.206-1.971 1.189-.853 2.142-1.929 2.79-3.149a8.57 8.57 0 0 0 .986-4.104 7.84 7.84 0 0 0-.343-2.387c-.053-.162-.123-.323-.185-.477l-.211-.485-.326-.624 4.206-.439v-4.874l-10.56.231-.686-.239c-1.657-.48-3.394-.716-5.139-.701a19.1 19.1 0 0 0-5.588.77c-1.554.451-2.99 1.168-4.224 2.11-1.132.886-2.033 1.977-2.64 3.195a8.67 8.67 0 0 0-.88 3.927c-.032 1.615.424 3.208 1.32 4.62a10.17 10.17 0 0 0 2.253 2.472c-.675.536-1.266 1.147-1.76 1.817-.694.867-1.077 1.895-1.102 2.954a4.86 4.86 0 0 0 .962 2.991c.26.331.555.64.88.924-.882.576-1.651 1.273-2.279 2.064-.991 1.238-1.514 2.716-1.496 4.227-.073 1.19.239 2.374.901 3.416s1.646 1.9 2.839 2.474c2.27 1.14 5.553 1.725 9.75 1.725a32.43 32.43 0 0 0 6.644-.685 20.41 20.41 0 0 0 5.456-1.91c1.486-.779 2.761-1.83 3.74-3.08.947-1.247 1.444-2.715 1.426-4.212a6.41 6.41 0 0 0-.624-3.102c-.467-.981-1.177-1.86-2.078-2.572zm-16.403 3.85l6.846.1c2.244 0 3.08.4 3.379.616a1.78 1.78 0 0 1 .551.674c.119.26.166.541.136.82 0 .939-.669 1.733-2.05 2.418-2.092.88-4.405 1.286-6.723 1.178a20.39 20.39 0 0 1-2.719-.162 7.1 7.1 0 0 1-1.927-.493c-.417-.173-.775-.438-1.038-.77a1.98 1.98 0 0 1-.334-1.224c-.025-.855.335-1.685 1.003-2.31a3.9 3.9 0 0 1 1.316-.699 4.27 4.27 0 0 1 1.526-.179l.035.031zm2.895-22.33c2.059 0 3.573.393 4.488 1.178a4.27 4.27 0 0 1 1.101 1.466 3.79 3.79 0 0 1 .334 1.73 3.69 3.69 0 0 1-.34 1.67c-.244.53-.61 1.01-1.077 1.41-.88.77-2.438 1.163-4.497 1.163s-3.52-.385-4.453-1.155c-.461-.403-.823-.884-1.063-1.413a3.72 3.72 0 0 1-.336-1.666 3.85 3.85 0 0 1 .322-1.728 4.31 4.31 0 0 1 1.077-1.475c.854-.839 2.35-1.232 4.409-1.232l.035.054z"/></svg>